<svg id="visual" viewBox="0 0 540 960" width="540" height="960" xmlns="http://www.w3.org/2000/svg" xmlns:xlink="http://www.w3.org/1999/xlink" version="1.1"><rect x="0" y="0" width="540" height="960" fill="#000"></rect><defs><linearGradient id="grad1_0" x1="0%" y1="100%" x2="100%" y2="0%"><stop offset="30%" stop-color="#000000" stop-opacity="1"></stop><stop offset="70%" stop-color="#000000" stop-opacity="1"></stop></linearGradient></defs><defs><linearGradient id="grad2_0" x1="0%" y1="100%" x2="100%" y2="0%"><stop offset="30%" stop-color="#000000" stop-opacity="1"></stop><stop offset="70%" stop-color="#000000" stop-opacity="1"></stop></linearGradient></defs><g transform="translate(540, 960)"><path d="M-162 0C-159.7 -21.2 -157.5 -42.4 -149.7 -62C-141.9 -81.6 -128.6 -99.6 -112.4 -112.4C-96.3 -125.3 -77.4 -133 -58.2 -140.4C-39 -147.8 -19.5 -154.9 0 -162L0 0Z" fill="#E91E63"></path></g><g transform="translate(0, 0)"><path d="M162 0C162.5 23.7 163 47.4 149.7 62C136.4 76.6 109.3 82.1 91.9 91.9C74.6 101.8 66.9 116 53.2 128.4C39.5 140.8 19.7 151.4 0 162L0 0Z" fill="#E91E63"></path></g></svg>